Patient4_TMGait_0pt7_01_left_42_EMG.mot
version=1
nRows=23
nColumns=33
inDegrees=no
endheader
time	1LAddLong	2LGlutMax	3LGlutMed	4LIliopsoas	5LSemiMemb	6LBicFemLong	7LRecFem	8LVastMed	9LVastLat	10LGasMed	11LTibAnt	12lTibPost	13LPeroneusLong	14LSol	15LExtDigLong	16LFlexDigLong	17RAddLong	18RGlutMax	19RGlutMed	20RIliopsoas	21RSemiMemb	22RBicFemLong	23RRecFem	24RVastMed	25RVastLat	26RGasMed	27RTibAnt	28RTibPost	29RPeroneusLong	30RSol	31RExtDigLong	32RFlexDigLong
49.032	0.039063	0.88745	0.25879	0.010529	-0.005798	0.28091	0.18143	0.014801	-0.31357	-0.25467	0.01236	0.010223	-0.031891	0.13306	-0.000916	0.018158	0.036469	-0.12604	-0.19714	0.168	-0.093842	0.034485	0.61905	-0.056	-0.01236	-0.010681	0.04837	-0.001526	0.32623	-0.54535	0.00061	-0.006561
49.033	0.072784	0.87769	0.16983	0.001373	0.01297	0.29968	0.076752	0.03006	-0.3006	-0.048065	0.029297	0.054932	0.43854	0.08728	-0.022583	0.019531	0.064392	-0.12466	-0.19379	0.089264	-0.081177	-0.015564	0.65536	-0.034027	-0.033722	-0.00351	0.016174	0.00061	0.53497	-0.41779	0.000916	-0.007629
49.034	-0.011444	0.87112	0.096588	-0.01358	-0.045013	0.34775	0.065155	0.036163	-0.32532	0.057068	0.030365	0.068359	1.028	0.17609	0.059357	0.036469	0.076599	-0.11185	-0.21744	-0.016785	-0.048676	-0.03952	0.62149	-0.046844	-0.016785	0.008087	-0.12802	-0.08255	0.056	-0.068817	-0.000916	0.012665
49.035	-0.016937	0.87692	-0.045929	-0.018005	-0.089111	0.45959	-0.043793	0.042877	-0.29175	0.041199	-0.013885	0.067139	0.11246	-0.047455	0.035706	0.03479	0.044556	-0.057068	-0.29968	-0.073547	-0.015564	-0.023499	0.6041	0.011749	-0.001678	-0.009766	-0.20554	-0.11978	0.073853	0.35782	-0.007629	0.007782
49.036	0.000305	0.89401	-0.15167	-0.005798	-0.088043	0.21423	-0.092316	0.052643	-0.23743	0.082092	0.005951	0.066071	-0.64545	-0.22598	-0.047455	0.023041	0.049744	-0.03006	-0.30685	-0.112	0.016632	0.031128	0.61584	-0.008392	-0.005341	-0.015869	-0.12741	-0.26642	0.28946	0.25406	0.001221	0.013885
49.037	-0.00473	0.85983	-0.030365	0.000763	-0.079803	0.22995	-0.091705	0.055237	-0.24139	0.080566	-0.028534	0.07309	0.07431	-0.019379	-0.041656	0.02182	0.027161	-0.038605	-0.31555	-0.14847	0.035248	0.068207	0.61874	-0.048676	-0.023346	-0.016174	-0.050201	-0.60013	0.041962	0.065765	0.001984	-0.003357
49.038	-0.002441	0.92422	-0.026245	0.008392	-0.071259	-0.19196	-0.084991	0.036011	-0.2214	0.15472	-0.005035	0.09964	-0.41382	-0.45227	-0.1033	0.007782	-0.042419	-0.018158	-0.28686	-0.17685	0.016632	-0.010223	0.61615	-0.000458	-0.028076	-0.014496	0.041351	0.29266	0.035706	-0.11643	-0.001068	-0.010376
49.039	-0.00824	1.0551	-0.053253	-0.009003	-0.14771	-0.53894	-0.12482	0.00885	-0.15854	0.10925	0.016937	0.10147	-0.89539	-0.26627	-0.10544	0.000458	-0.09201	-0.078278	-0.36819	-0.16296	-0.016632	-0.039368	0.6105	-0.006256	-0.02533	-0.001831	0.045471	0.34393	0.046539	0.009003	-0.000916	-0.010376
49.04	-0.011292	1.147	-0.1976	-0.003662	-0.22049	-0.32715	-0.22171	-0.003052	-0.052185	0.23789	0.010071	0.12909	0.048981	0.093994	-0.093079	0.001984	-0.10071	-0.11475	-0.44006	-0.11887	-0.013885	-0.039368	0.56488	-0.010681	-0.035858	0.002899	0.060577	0.14816	0.09964	0.12299	0.000458	-0.002747
49.041	-0.005035	1.252	-0.23483	-0.009918	-0.2211	-0.37872	-0.2681	-0.012817	0.056	0.41046	0.03891	0.11749	0.66238	0.2594	-0.074158	0.010834	-0.071716	-0.10315	-0.44769	-0.042419	-0.038757	-0.042114	0.56458	0.016174	-0.036316	0.003967	0.092773	0.082245	0.16907	0.25162	-0.001984	-0.006409
49.042	-0.005188	1.3953	-0.1796	0.011139	-0.090942	-0.4863	-0.21881	-0.013428	-0.012207	-0.15228	0.017242	0.11917	0.76202	0.26855	0.089417	0.004425	-0.033875	-0.043182	-0.50262	0.006714	-0.049744	-0.063019	0.58166	-0.049438	-0.02182	0.003204	0.045624	0.054626	0.10666	0.1648	0.004883	-0.002136
49.043	0.023956	1.4796	0.072784	0.040588	0.072937	-0.23956	-0.13672	-0.028839	-0.074921	-0.30548	0.076294	0.1236	0.13962	0.20783	0.09201	0.001068	-0.03479	-0.062408	-0.48447	-0.064392	-0.067596	-0.063171	0.5838	-0.056458	-0.029755	0	-0.16785	0.02243	0.095825	-0.16892	-0.000153	0.003204
49.044	0.04837	1.6103	0.074921	0.034332	0.081329	-0.33264	-0.08255	-0.029144	-0.041656	-0.2478	0.08667	0.10803	-0.091095	0.20523	-0.061035	0.003815	-0.045319	-0.063782	-0.42831	-0.11383	-0.064545	-0.011444	0.56183	-0.009308	-0.033112	0	-0.24597	-0.00946	0.075073	-0.36209	0.000153	0.004883
49.045	0.059509	1.7836	0.043793	0.013428	0.084839	-0.28214	-0.10452	0.000153	-0.045471	-0.19028	-0.028534	0.097504	0.28458	0.088348	-0.31952	0.005341	0.010986	-0.12482	-0.47653	-0.084381	-0.079651	0.040283	0.54962	-0.055237	-0.05127	0.005798	-0.10056	-0.004883	0.031586	-0.13458	0	0.00473
49.046	0.047455	1.8176	0.051727	-0.013885	0.041809	-0.11932	-0.16129	0.013428	-0.063171	-0.039368	-0.082397	0.086823	-0.22125	0.054626	-0.34836	-0.003967	0.057983	-0.22705	-0.63339	0.046082	-0.093079	0.042267	0.55832	-0.092621	-0.049286	0.009308	0.20477	-0.003204	0.020294	-0.010071	-0.00473	0.003967
49.047	0.029602	1.8288	-0.020599	-0.018311	-0.044708	0.15839	-0.21103	0.007782	-0.028381	0.053711	-0.048828	0.06897	-0.59479	0.0737	-0.22339	-0.002899	0.02594	-0.22049	-0.72433	0.14587	-0.098877	-0.05722	0.5928	-0.14999	-0.06012	0.01297	0.5368	-0.01236	0.007324	-0.016632	0.004578	0.002899
49.048	0.011749	1.7232	-0.1355	-0.015259	-0.14801	0.25436	-0.24582	0.011902	0.034332	0.40863	-0.011749	0.054321	-0.42007	0.17349	0.10666	0.005493	0.032043	-0.2298	-0.84	0.14923	-0.093994	-0.095825	0.56885	-0.16724	-0.048981	0.011902	0.54199	-0.014954	-0.027618	0.002136	-0.001984	0.002289
49.049	-0.003815	1.6666	-0.1561	-0.021667	-0.19058	0.12238	-0.34775	-0.000763	0.15991	0.1268	-0.003967	0.037842	-0.070496	0.16434	0.31647	0.02655	0.024567	-0.30701	-0.88364	0.13336	-0.12772	-0.091705	0.60898	-0.1738	-0.044403	0.000458	0.4451	-0.024109	-0.054626	0.00351	0.00061	0.008545
49.05	0.016174	1.3763	-0.093842	-0.017242	-0.16052	-0.52689	-0.39337	-0.008087	0.26474	-0.36377	-0.032806	0.020447	0.24857	-0.082245	0.2507	-0.45624	0.023193	-0.33524	-0.81634	0.16815	-0.12466	-0.084381	0.5806	-0.17227	-0.059967	0.002594	0.12177	-0.022278	-0.004578	-0.072937	0.005035	0.007324
49.051	0.034637	1.1548	-0.015259	-0.006256	0.07843	-0.46936	-0.18768	-0.018616	0.10147	-0.50262	-0.054169	0.002289	0.013275	-0.14954	0.13825	0.095978	-0.000763	-0.3302	-0.91583	0.14526	-0.1268	-0.061035	0.59616	-0.16464	-0.043182	0.005798	-0.70145	-0.020599	0.019226	-0.10757	-0.003662	0.008545
49.052	0.031281	1.0306	-0.15747	-0.006104	0.14435	-0.081024	-0.1091	-0.018921	-0.057068	-0.47424	-0.055084	-0.015411	-0.47241	-0.15991	0.10239	0.25543	-0.004272	-0.36179	-1.0133	0.14267	-0.12482	-0.035553	0.56107	-0.10162	-0.048065	0.003204	-1.2436	-0.017395	0.010681	-0.12344	0.002136	0.000763
49.053	0.018463	0.93552	-0.10361	0.00351	0.094452	0.23392	-0.15671	-0.008392	-0.13672	-0.22171	-0.053406	-0.032043	0.41031	-0.057526	0.17838	0.19394	-0.042419	-0.35751	-1.0309	0.12024	-0.10071	-0.03067	0.56427	-0.05722	-0.041351	-0.003815	-0.78613	-0.020142	0.044403	-0.059814	-0.00473	0
49.054	0.016785	0.80749	-0.012817	0.004425	0.015717	0.28229	-0.18539	-0.009003	-0.045166	0.39475	-0.03479	-0.041351	0.28091	-0.34531	0.12238	0.1976	0.001984	-0.38773	-0.98938	-0.028381	-0.092773	0.006256	0.55862	-0.050201	-0.018158	-0.004272	-0.30411	-0.022888	0.045471	-0.098724	-0.001068	0.004272
